General
Complete name                    :
Format                           : Matroska
File size                        : 2.34 GiB
Duration                         : 2h 26mn
Overall bit rate                 : 2 276 Kbps


Video
ID                               : 1
Format                           : AVC

Duration                         : 2h 26mn
Bit rate                         : 1 655 Kbps
Nominal bit rate                 : 1 604 Kbps
Width                            : 720 pixels
Height                           : 436 pixels
Display aspect ratio             : 2.35:1
Frame rate                       : 25.000 fps
Resolution                       : 8 bits
Colorimetry                      : 4:2:0
Scan type                        : Progressive
Bits/(Pixel*Frame)               : 0.211
Stream size                      : 1.70 GiB (73%)
Writing library                  : x264 core 79

Audio #1
ID                               : 2
Format                           : AC-3
Format/Info                      : Audio Coding 3
Codec ID                         : A_AC3
Duration                         : 2h 26mn
Bit rate mode                    : Constant
Bit rate                         : 192 Kbps
Channel(s)                       : 2 channels
Channel positions                : L R
Sampling rate                    : 48.0 KHz
Stream size                      : 202 MiB (8%)
Language                         : English

Audio #2
ID                               : 3
Format                           : AC-3
Format/Info                      : Audio Coding 3
Codec ID                         : A_AC3
Duration                         : 2h 26mn
Bit rate mode                    : Constant
Bit rate                         : 192 Kbps
Channel(s)                       : 2 channels
Channel positions                : L R
Sampling rate                    : 48.0 KHz
Stream size                      : 202 MiB (8%)
Language                         : French

Audio #3
ID                               : 4
Format                           : AC-3
Format/Info                      : Audio Coding 3
Codec ID                         : A_AC3
Duration                         : 2h 26mn
Bit rate mode                    : Constant
Bit rate                         : 192 Kbps
Channel(s)                       : 2 channels
Channel positions                : L R
Sampling rate                    : 48.0 KHz
Stream size                      : 202 MiB (8%)
Language                         : German

Text #1
Language                         : English

Text #2
Language                         : English

Text #3
Language                         : French

Text #4
Language                         : German

Text #5
Language                         : Portuguese

Text #6
Language                         : Arabic

Text #7
Language                         : Danish

Text #8
Language                         : Dutch

Text #9
Language                         : Finnish

Text #10
Language                         : Greek

Text #11
Language                         : Hindi

Text #12
Language                         : Norwegian

Text #13
Language                         : Polish

Text #14
Language                         : Swedish

Text #15
Language                         : Turkish


